<svg width="64" height="64" viewBox="0 0 64 64" fill="none" xmlns="http://www.w3.org/2000/svg">
  <!-- Professional Medical Chart Icon -->
  <defs>
    <linearGradient id="chartGrad" x1="0%" y1="0%" x2="100%" y2="100%">
      <stop offset="0%" style="stop-color:#14B8A6"/>
      <stop offset="100%" style="stop-color:#10B981"/>
    </linearGradient>
  </defs>
  
  <!-- Clipboard background -->
  <rect x="8" y="4" width="48" height="56" rx="4" fill="white" stroke="url(#chartGrad)" stroke-width="2"/>
  
  <!-- Clipboard clip -->
  <rect x="24" y="0" width="16" height="8" rx="4" fill="url(#chartGrad)"/>
  <rect x="26" y="2" width="12" height="4" rx="2" fill="white"/>
  
  <!-- Medical cross -->
  <rect x="28" y="16" width="8" height="2" fill="url(#chartGrad)"/>
  <rect x="31" y="13" width="2" height="8" fill="url(#chartGrad)"/>
  
  <!-- Chart lines -->
  <rect x="16" y="28" width="32" height="2" rx="1" fill="#E5E7EB"/>
  <rect x="16" y="34" width="24" height="2" rx="1" fill="#E5E7EB"/>
  <rect x="16" y="40" width="28" height="2" rx="1" fill="#E5E7EB"/>
  <rect x="16" y="46" width="20" height="2" rx="1" fill="#E5E7EB"/>
  
  <!-- Checkboxes -->
  <rect x="12" y="26" width="6" height="6" rx="1" fill="url(#chartGrad)"/>
  <path d="M13.5 29L15 30.5L17.5 28" stroke="white" stroke-width="1.5" fill="none" stroke-linecap="round"/>
  
  <rect x="12" y="32" width="6" height="6" rx="1" fill="white" stroke="url(#chartGrad)" stroke-width="1"/>
  <rect x="12" y="38" width="6" height="6" rx="1" fill="url(#chartGrad)"/>
  <path d="M13.5 41L15 42.5L17.5 40" stroke="white" stroke-width="1.5" fill="none" stroke-linecap="round"/>
</svg>
