<svg width="1200" height="600" viewBox="0 0 1200 600" fill="none" xmlns="http://www.w3.org/2000/svg">
  <!-- Abstract Medical Background -->
  <defs>
    <linearGradient id="gradient1" x1="0%" y1="0%" x2="100%" y2="100%">
      <stop offset="0%" style="stop-color:#3B82F6;stop-opacity:0.1" />
      <stop offset="50%" style="stop-color:#14B8A6;stop-opacity:0.05" />
      <stop offset="100%" style="stop-color:#10B981;stop-opacity:0.1" />
    </linearGradient>
    <linearGradient id="gradient2" x1="0%" y1="0%" x2="100%" y2="0%">
      <stop offset="0%" style="stop-color:#1D4ED8;stop-opacity:0.08" />
      <stop offset="100%" style="stop-color:#0F766E;stop-opacity:0.08" />
    </linearGradient>
  </defs>
  
  <!-- Background -->
  <rect width="1200" height="600" fill="url(#gradient1)"/>
  
  <!-- Abstract Shapes -->
  <circle cx="200" cy="150" r="80" fill="#3B82F6" opacity="0.05"/>
  <circle cx="1000" cy="450" r="120" fill="#14B8A6" opacity="0.05"/>
  <circle cx="600" cy="300" r="60" fill="#10B981" opacity="0.08"/>
  
  <!-- Medical Cross Pattern -->
  <g opacity="0.03">
    <rect x="100" y="280" width="40" height="8" fill="#1D4ED8"/>
    <rect x="116" y="264" width="8" height="40" fill="#1D4ED8"/>
    
    <rect x="900" y="180" width="40" height="8" fill="#14B8A6"/>
    <rect x="916" y="164" width="8" height="40" fill="#14B8A6"/>
    
    <rect x="500" y="480" width="40" height="8" fill="#10B981"/>
    <rect x="516" y="464" width="8" height="40" fill="#10B981"/>
  </g>
  
  <!-- Flowing Lines -->
  <path d="M0,300 Q300,200 600,300 T1200,300" stroke="#3B82F6" stroke-width="2" fill="none" opacity="0.1"/>
  <path d="M0,350 Q400,250 800,350 T1200,350" stroke="#14B8A6" stroke-width="2" fill="none" opacity="0.1"/>
</svg>
